HIERARCHY
ROOT joint_Root
{
  OFFSET 0 0 0
  CHANNELS 6 Xposition Yposition Zposition Zrotation Xrotation Yrotation
  JOINT Hips
  {
    OFFSET 0 93.9241 -3
    CHANNELS 6 Xposition Yposition Zposition Zrotation Xrotation Yrotation
    JOINT Spine
    {
      OFFSET 15.7357 0 0
      CHANNELS 6 Xposition Yposition Zposition Zrotation Xrotation Yrotation
      JOINT Chest
      {
        OFFSET 8.98455 -0.406207 0
        CHANNELS 6 Xposition Yposition Zposition Zrotation Xrotation Yrotation
        JOINT Neck
        {
          OFFSET 16.3773 0 0
          CHANNELS 6 Xposition Yposition Zposition Zrotation Xrotation Yrotation
          JOINT Head
          {
            OFFSET 6.45672 0 0
            CHANNELS 6 Xposition Yposition Zposition Zrotation Xrotation Yrotation
            End Site
            {
              OFFSET 0 0 0
            }
          }
        }
        JOINT Shoulder_L
        {
          OFFSET 12.9942 -0.242716 4.98039
          CHANNELS 6 Xposition Yposition Zposition Zrotation Xrotation Yrotation
          JOINT UpperArm_L
          {
            OFFSET 5.34809 0 0
            CHANNELS 6 Xposition Yposition Zposition Zrotation Xrotation Yrotation
            JOINT LowerArm_L
            {
              OFFSET 24.3286 1.87007e-05 0
              CHANNELS 6 Xposition Yposition Zposition Zrotation Xrotation Yrotation
              JOINT Hand_L
              {
                OFFSET 22.2916 0 0
                CHANNELS 6 Xposition Yposition Zposition Zrotation Xrotation Yrotation
                End Site
                {
                  OFFSET 0 0 0
                }
              }
            }
          }
        }
        JOINT Shoulder_R
        {
          OFFSET 12.9945 -0.242716 -4.98039
          CHANNELS 6 Xposition Yposition Zposition Zrotation Xrotation Yrotation
          JOINT UpperArm_R
          {
            OFFSET -5.34813 0 0
            CHANNELS 6 Xposition Yposition Zposition Zrotation Xrotation Yrotation
            JOINT LowerArm_R
            {
              OFFSET -24.3289 0.000322201 0
              CHANNELS 6 Xposition Yposition Zposition Zrotation Xrotation Yrotation
              JOINT Hand_R
              {
                OFFSET -22.2915 -0.000108084 0
                CHANNELS 6 Xposition Yposition Zposition Zrotation Xrotation Yrotation
                End Site
                {
                  OFFSET 0 0 0
                }
              }
            }
          }
        }
      }
    }
    JOINT UpperLeg_L
    {
      OFFSET -2.19248 -6.46944 0
      CHANNELS 6 Xposition Yposition Zposition Zrotation Xrotation Yrotation
      JOINT LowerLeg_L
      {
        OFFSET 39.0811 0 -1.23785e-05
        CHANNELS 6 Xposition Yposition Zposition Zrotation Xrotation Yrotation
        JOINT Foot_L
        {
          OFFSET 40.9854 0 -1.26872e-05
          CHANNELS 6 Xposition Yposition Zposition Zrotation Xrotation Yrotation
          JOINT Toes_L
          {
            OFFSET 11.7543 0 0
            CHANNELS 6 Xposition Yposition Zposition Zrotation Xrotation Yrotation
            End Site
            {
              OFFSET 0 0 0
            }
          }
        }
      }
    }
    JOINT UpperLeg_R
    {
      OFFSET -2.19251 6.46944 0
      CHANNELS 6 Xposition Yposition Zposition Zrotation Xrotation Yrotation
      JOINT LowerLeg_R
      {
        OFFSET -39.0811 -0.00228153 -0.0401928
        CHANNELS 6 Xposition Yposition Zposition Zrotation Xrotation Yrotation
        JOINT Foot_R
        {
          OFFSET -40.9854 0 0
          CHANNELS 6 Xposition Yposition Zposition Zrotation Xrotation Yrotation
          JOINT Toes_R
          {
            OFFSET -11.7543 0 0
            CHANNELS 6 Xposition Yposition Zposition Zrotation Xrotation Yrotation
            End Site
            {
              OFFSET 0 0 0
            }
          }
        }
      }
    }
  }
}
MOTION
Frames:	8
Frame Time:	0.0333333
0 0 0 0 0 -0 -1.1009 92.3434 -1.31017 90.9198 -3.93777 3.22976 15.7357 5.1072e-06 -5.51765e-07 106.321 86.7055 -107.102 8.98455 -0.406207 -4.3199e-07 -1.42922 1.91386 -1.53825 16.3773 -1.3905e-06 -6.99897e-07 1.39953 -7.42545 3.87245 6.45672 -1.25837e-06 -1.02172e-07 19.5059 -11.5755 7.08909 12.9942 -0.242716 4.98039 -90.2053 1.06589 -94.0958 5.34809 -7.22636e-06 -6.2814e-07 -75.4504 -8.06607 5.34959 24.3286 1.87007e-05 4.90208e-06 1.96286 6.85174 -16.0276 22.2916 -9.88446e-07 4.63217e-06 10.9534 5.31042 -0.221997 12.9945 -0.242716 -4.98039 89.2783 4.76804 -96.3826 -5.34813 -1.25947e-06 -3.79883e-06 -71.8961 -7.29935 13.8064 -24.3289 0.000322201 -8.65921e-06 5.53529 14.4872 -21.1792 -22.2915 -0.000108084 -4.47941e-06 14.045 5.4224 -3.68062 -2.19248 -6.46944 -1.22534e-07 175.322 -4.88624 -9.09956 39.0811 -6.73843e-06 -1.23785e-05 0.105297 -0.227487 20.9888 40.9854 -6.48686e-06 -1.26872e-05 4.18094 -4.20513 -59.4112 11.7543 -2.30145e-07 3.05095e-06 0.099734 -0.112724 -17.6743 -2.19251 6.46944 -1.45247e-06 -177.761 16.7727 177.419 -39.0811 -0.00228153 -0.0401928 0.0317073 -0.0344512 19.9186 -40.9854 7.72618e-06 5.99936e-06 0.826495 -14.8198 -65.8908 -11.7543 -5.6619e-06 -5.58687e-06 -0.0193568 0.0109975 -16.5739 
0 0 0 0 0 -0 -1.12934 92.3241 -1.20091 90.9303 -4.06435 3.31797 15.7357 5.1072e-06 -5.51765e-07 106.711 86.7004 -107.535 8.98455 -0.406207 -4.3199e-07 -1.43104 1.96334 -1.62308 16.3773 -1.3905e-06 -6.99897e-07 1.33839 -7.57299 3.92841 6.45672 -1.25837e-06 -1.02172e-07 19.4764 -11.7856 7.22664 12.9942 -0.242716 4.98039 -90.2162 1.11412 -94.0223 5.34809 -7.22636e-06 -6.2814e-07 -75.4135 -8.22088 5.59548 24.3286 1.87007e-05 4.90208e-06 1.95638 6.87859 -15.9183 22.2916 -9.88446e-07 4.63217e-06 10.8814 5.30995 -0.208598 12.9945 -0.242716 -4.98039 89.2668 4.8655 -96.42 -5.34813 -1.25947e-06 -3.79883e-06 -71.8552 -7.26827 13.7565 -24.3289 0.000322201 -8.65921e-06 6.01584 15.0462 -22.0979 -22.2915 -0.000108084 -4.47941e-06 14.1645 5.41761 -3.51844 -2.19248 -6.46944 -1.22534e-07 175.334 -4.88462 -9.02134 39.0811 -6.73843e-06 -1.23785e-05 0.107108 -0.229371 21.1594 40.9854 -6.48686e-06 -1.26872e-05 4.12787 -4.36423 -59.5726 11.7543 -2.30145e-07 3.05095e-06 0.0996851 -0.112663 -17.6737 -2.19251 6.46944 -1.45247e-06 -177.783 16.5306 177.542 -39.0811 -0.00228153 -0.0401928 0.0326871 -0.0343879 20.011 -40.9854 7.72618e-06 5.99936e-06 0.772507 -14.9151 -66.014 -11.7543 -5.6619e-06 -5.58687e-06 -0.0246708 0.0141113 -16.5739 
0 0 0 0 0 -0 -1.15786 92.318 -1.10084 90.9644 -4.14058 3.42739 15.7357 5.1072e-06 -5.51765e-07 106.92 86.6774 -107.789 8.98455 -0.406207 -4.3199e-07 -1.39283 2.00302 -1.71321 16.3773 -1.3905e-06 -6.99897e-07 1.1807 -7.7446 3.97097 6.45672 -1.25837e-06 -1.02172e-07 19.4475 -12.0333 7.35582 12.9942 -0.242716 4.98039 -90.2115 1.09067 -94.0263 5.34809 -7.22636e-06 -6.2814e-07 -75.436 -8.47656 5.80087 24.3286 1.87007e-05 4.90208e-06 1.89269 6.74938 -15.7043 22.2916 -9.88446e-07 4.63217e-06 10.8011 5.30779 -0.147496 12.9945 -0.242716 -4.98039 89.2468 4.96018 -96.3549 -5.34813 -1.25947e-06 -3.79883e-06 -71.7774 -7.34139 13.7528 -24.3289 0.000322201 -8.65921e-06 6.39879 15.1404 -23.2408 -22.2915 -0.000108084 -4.47941e-06 14.463 5.41422 -3.4061 -2.19248 -6.46944 -1.22534e-07 175.337 -4.93272 -8.86495 39.0811 -6.73843e-06 -1.23785e-05 0.107219 -0.228513 21.2125 40.9854 -6.48686e-06 -1.26872e-05 4.0891 -4.39952 -59.6769 11.7543 -2.30145e-07 3.05095e-06 0.0989828 -0.111867 -17.666 -2.19251 6.46944 -1.45247e-06 -177.87 16.5619 177.743 -39.0811 -0.00228153 -0.0401928 0.0296523 -0.0325557 20.0066 -40.9854 7.72618e-06 5.99936e-06 0.762645 -14.8168 -66.0934 -11.7543 -5.6619e-06 -5.58687e-06 -0.0165225 0.00944251 -16.5739 
0 0 0 0 0 -0 -1.17737 92.3094 -1.02472 90.9852 -4.17856 3.4716 15.7357 5.1072e-06 -5.51765e-07 106.676 86.6688 -107.576 8.98455 -0.406207 -4.3199e-07 -1.36776 1.98315 -1.77618 16.3773 -1.3905e-06 -6.99897e-07 1.09759 -7.9252 3.98029 6.45672 -1.25837e-06 -1.02172e-07 19.3296 -12.2401 7.48981 12.9942 -0.242716 4.98039 -90.2055 1.05743 -94.0089 5.34809 -7.22636e-06 -6.2814e-07 -75.455 -8.66618 5.8995 24.3286 1.87007e-05 4.90208e-06 1.84239 6.72722 -15.3546 22.2916 -9.88446e-07 4.63217e-06 10.6533 5.30975 -0.202458 12.9945 -0.242716 -4.98039 89.2373 5.02215 -96.3541 -5.34813 -1.25947e-06 -3.79883e-06 -71.656 -7.59058 13.8469 -24.3289 0.000322201 -8.65921e-06 7.05866 15.4247 -24.9671 -22.2915 -0.000108084 -4.47941e-06 14.5782 5.40007 -2.93975 -2.19248 -6.46944 -1.22534e-07 175.338 -5.01657 -8.80005 39.0811 -6.73843e-06 -1.23785e-05 0.10778 -0.228793 21.2824 40.9854 -6.48686e-06 -1.26872e-05 4.07501 -4.3546 -59.7739 11.7543 -2.30145e-07 3.05095e-06 0.0981388 -0.110881 -17.6565 -2.19251 6.46944 -1.45247e-06 -177.927 16.6951 177.827 -39.0811 -0.00228153 -0.0401928 0.031145 -0.036613 20.0423 -40.9854 7.72618e-06 5.99936e-06 0.767564 -14.6627 -66.1653 -11.7543 -5.6619e-06 -5.58687e-06 -0.0231278 0.0132279 -16.5739 
0 0 0 0 0 -0 -1.1897 92.3063 -0.961006 90.9953 -4.20554 3.44633 15.7357 5.1072e-06 -5.51765e-07 106.379 86.6813 -107.286 8.98455 -0.406207 -4.3199e-07 -1.38213 1.94367 -1.78891 16.3773 -1.3905e-06 -6.99897e-07 0.966309 -8.04434 3.92908 6.45672 -1.25837e-06 -1.02172e-07 19.2678 -12.4347 7.64069 12.9942 -0.242716 4.98039 -90.208 1.0678 -93.9742 5.34809 -7.22636e-06 -6.2814e-07 -75.4599 -8.60259 5.9442 24.3286 1.87007e-05 4.90208e-06 1.73706 6.53248 -14.926 22.2916 -9.88446e-07 4.63217e-06 10.4898 5.30724 -0.131621 12.9945 -0.242716 -4.98039 89.2319 5.02796 -96.3028 -5.34813 -1.25947e-06 -3.79883e-06 -71.534 -7.78156 14 -24.3289 0.000322201 -8.65921e-06 8.01896 15.9199 -27.1875 -22.2915 -0.000108084 -4.47941e-06 15.2191 5.38599 -2.4875 -2.19248 -6.46944 -1.22534e-07 175.333 -5.05729 -8.79397 39.0811 -6.73843e-06 -1.23785e-05 0.108033 -0.229214 21.3073 40.9854 -6.48686e-06 -1.26872e-05 4.06567 -4.35764 -59.8339 11.7543 -2.30145e-07 3.05095e-06 0.0984781 -0.111282 -17.6604 -2.19251 6.46944 -1.45247e-06 -177.96 16.7577 177.869 -39.0811 -0.00228153 -0.0401928 0.027192 -0.0318071 20.0278 -40.9854 7.72618e-06 5.99936e-06 0.762241 -14.5535 -66.2118 -11.7543 -5.6619e-06 -5.58687e-06 -0.0169432 0.00969088 -16.5739 
0 0 0 0 0 -0 -1.1957 92.3093 -0.902677 90.9987 -4.27812 3.41107 15.7357 5.1072e-06 -5.51765e-07 106.431 86.6938 -107.35 8.98455 -0.406207 -4.3199e-07 -1.40768 1.94349 -1.81284 16.3773 -1.3905e-06 -6.99897e-07 0.855876 -8.20013 3.94589 6.45672 -1.25837e-06 -1.02172e-07 19.2153 -12.5771 7.71195 12.9942 -0.242716 4.98039 -90.2046 1.05286 -94.0066 5.34809 -7.22636e-06 -6.2814e-07 -75.4394 -8.71282 6.07567 24.3286 1.87007e-05 4.90208e-06 1.70181 6.51019 -14.6838 22.2916 -9.88446e-07 4.63217e-06 10.4063 5.30371 -0.0316467 12.9945 -0.242716 -4.98039 89.2221 5.06323 -96.2541 -5.34813 -1.25947e-06 -3.79883e-06 -71.3196 -8.30508 14.2078 -24.3289 0.000322201 -8.65921e-06 8.97592 16.1017 -29.6656 -22.2915 -0.000108084 -4.47941e-06 15.7488 5.37917 -2.27335 -2.19248 -6.46944 -1.22534e-07 175.334 -4.97634 -8.78038 39.0811 -6.73843e-06 -1.23785e-05 0.10788 -0.228755 21.3001 40.9854 -6.48686e-06 -1.26872e-05 4.02695 -4.50342 -59.8709 11.7543 -2.30145e-07 3.05095e-06 0.0988568 -0.111713 -17.6645 -2.19251 6.46944 -1.45247e-06 -177.957 16.7689 177.884 -39.0811 -0.00228153 -0.0401928 0.0330621 -0.0360544 19.9851 -40.9854 7.72618e-06 5.99936e-06 0.761643 -14.5127 -66.2202 -11.7543 -5.6619e-06 -5.58687e-06 -0.0272131 0.0155713 -16.5739 
0 0 0 0 0 -0 -1.19801 92.3125 -0.850516 91.0004 -4.35656 3.321 15.7357 5.1072e-06 -5.51765e-07 106.102 86.7267 -107.015 8.98455 -0.406207 -4.3199e-07 -1.46076 1.88878 -1.80191 16.3773 -1.3905e-06 -6.99897e-07 0.727296 -8.26622 3.92296 6.45672 -1.25837e-06 -1.02172e-07 19.1675 -12.6831 7.76919 12.9942 -0.242716 4.98039 -90.2049 1.04874 -93.9445 5.34809 -7.22636e-06 -6.2814e-07 -75.4225 -8.8119 6.17183 24.3286 1.87007e-05 4.90208e-06 1.67836 6.50769 -14.4956 22.2916 -9.88446e-07 4.63217e-06 10.3107 5.30254 0.00087694 12.9945 -0.242716 -4.98039 89.2217 5.03785 -96.2057 -5.34813 -1.25947e-06 -3.79883e-06 -71.1087 -8.70479 14.3043 -24.3289 0.000322201 -8.65921e-06 9.72262 15.7635 -32.242 -22.2915 -0.000108084 -4.47941e-06 16.3984 5.37444 -2.12394 -2.19248 -6.46944 -1.22534e-07 175.322 -4.93322 -8.8264 39.0811 -6.73843e-06 -1.23785e-05 0.108115 -0.229826 21.2783 40.9854 -6.48686e-06 -1.26872e-05 4.0088 -4.60707 -59.8923 11.7543 -2.30145e-07 3.05095e-06 0.0989888 -0.111863 -17.6661 -2.19251 6.46944 -1.45247e-06 -177.942 16.6941 177.849 -39.0811 -0.00228153 -0.0401928 0.0327341 -0.0340966 19.9385 -40.9854 7.72618e-06 5.99936e-06 0.750298 -14.5 -66.2258 -11.7543 -5.6619e-06 -5.58687e-06 -0.0227664 0.0130549 -16.5739 
0 0 0 0 0 -0 -1.19586 92.3134 -0.813094 90.9888 -4.49806 3.21103 15.7357 5.1072e-06 -5.51765e-07 106.329 86.7585 -107.236 8.98455 -0.406207 -4.3199e-07 -1.5291 1.89583 -1.78742 16.3773 -1.3905e-06 -6.99897e-07 0.667769 -8.34508 3.89826 6.45672 -1.25837e-06 -1.02172e-07 19.0976 -12.7439 7.84336 12.9942 -0.242716 4.98039 -90.2015 1.02941 -93.9256 5.34809 -7.22636e-06 -6.2814e-07 -75.4028 -8.95663 6.25655 24.3286 1.87007e-05 4.90208e-06 1.66533 6.51831 -14.3651 22.2916 -9.88446e-07 4.63217e-06 10.2614 5.30026 0.0651873 12.9945 -0.242716 -4.98039 89.2218 5.00817 -96.1557 -5.34813 -1.25947e-06 -3.79883e-06 -70.891 -8.89063 14.3751 -24.3289 0.000322201 -8.65921e-06 10.8329 15.8027 -35.0959 -22.2915 -0.000108084 -4.47941e-06 17.1793 5.38034 -2.30901 -2.19248 -6.46944 -1.22534e-07 175.327 -4.91565 -8.91411 39.0811 -6.73843e-06 -1.23785e-05 0.108479 -0.230643 21.2899 40.9854 -6.48686e-06 -1.26872e-05 3.97969 -4.74021 -59.927 11.7543 -2.30145e-07 3.05095e-06 0.103854 -0.11748 -17.7202 -2.19251 6.46944 -1.45247e-06 -177.893 16.4768 177.77 -39.0811 -0.00228153 -0.0401928 0.0334294 -0.0353385 19.914 -40.9854 7.72618e-06 5.99936e-06 0.731987 -14.5438 -66.228 -11.7543 -5.6619e-06 -5.58687e-06 -0.0155607 0.00894748 -16.5739 
